<svg width="227" height="75" viewBox="0 0 227 75" fill="none" xmlns="http://www.w3.org/2000/svg">
<path d="M45.5514 48H50.8014L34.9014 13H29.9514L14.1014 48H19.2514L23.1014 39.25H41.7014L45.5514 48ZM24.8514 35.25L32.4014 18.1L39.9514 35.25H24.8514ZM81.7842 41.7C79.2842 43.3 76.5342 43.95 73.5842 43.95C65.5342 43.95 59.6842 38.2 59.6842 30.5C59.6842 22.7 65.5342 17.05 73.6342 17.05C77.5842 17.05 80.8842 18.3 83.7842 21.1L86.8842 18C83.6842 14.45 78.9842 12.6 73.4342 12.6C62.5842 12.6 54.6842 20.15 54.6842 30.5C54.6842 40.85 62.5842 48.4 73.3342 48.4C78.2342 48.4 83.0842 46.9 86.5842 43.95V30.3H81.7842V41.7ZM113.957 48.4C124.607 48.4 132.507 40.8 132.507 30.5C132.507 20.2 124.607 12.6 113.957 12.6C103.207 12.6 95.3072 20.25 95.3072 30.5C95.3072 40.75 103.207 48.4 113.957 48.4ZM113.957 43.95C106.107 43.95 100.307 38.25 100.307 30.5C100.307 22.75 106.107 17.05 113.957 17.05C121.707 17.05 127.507 22.75 127.507 30.5C127.507 38.25 121.707 43.95 113.957 43.95ZM170.999 48L162.699 36.25C167.599 34.5 170.399 30.6 170.399 25.2C170.399 17.6 164.899 13 155.799 13H142.149V48H147.149V37.35H155.799C156.549 37.35 157.299 37.3 157.999 37.25L165.549 48H170.999ZM155.649 33.1H147.149V17.35H155.649C162.049 17.35 165.399 20.2 165.399 25.2C165.399 30.2 162.049 33.1 155.649 33.1ZM206.628 48H211.878L195.978 13H191.028L175.178 48H180.328L184.178 39.25H202.778L206.628 48ZM185.928 35.25L193.478 18.1L201.028 35.25H185.928Z" fill="#5B9DC2"/>
<path d="M20.2304 56L16.1304 68.1L12.0104 56H10.6304L6.45039 68.04L2.41039 56H0.890391L5.61039 70H7.15039L11.2704 58.06L15.3704 70H16.9304L21.6504 56H20.2304ZM32.4432 64.74C32.4432 61.58 30.3032 59.4 27.3432 59.4C24.3832 59.4 22.2032 61.62 22.2032 64.74C22.2032 67.86 24.4432 70.1 27.7232 70.1C29.3832 70.1 30.8432 69.5 31.7832 68.38L30.9832 67.46C30.1832 68.38 29.0432 68.84 27.7632 68.84C25.4632 68.84 23.7832 67.38 23.6232 65.18H32.4232C32.4232 65.02 32.4432 64.86 32.4432 64.74ZM27.3432 60.62C29.4032 60.62 30.9032 62.06 31.0832 64.12H23.6232C23.8032 62.06 25.3032 60.62 27.3432 60.62ZM44.9279 70.1C46.7079 70.1 48.2079 69.38 49.0479 68.02L47.9879 67.3C47.2679 68.36 46.1479 68.84 44.9279 68.84C42.6279 68.84 40.9479 67.22 40.9479 64.74C40.9479 62.28 42.6279 60.64 44.9279 60.64C46.1479 60.64 47.2679 61.14 47.9879 62.2L49.0479 61.48C48.2079 60.1 46.7079 59.4 44.9279 59.4C41.7879 59.4 39.5079 61.6 39.5079 64.74C39.5079 67.88 41.7879 70.1 44.9279 70.1ZM55.9616 70.1C59.0416 70.1 61.3016 67.86 61.3016 64.74C61.3016 61.62 59.0416 59.4 55.9616 59.4C52.8816 59.4 50.6016 61.62 50.6016 64.74C50.6016 67.86 52.8816 70.1 55.9616 70.1ZM55.9616 68.84C53.7216 68.84 52.0416 67.2 52.0416 64.74C52.0416 62.28 53.7216 60.64 55.9616 60.64C58.2016 60.64 59.8616 62.28 59.8616 64.74C59.8616 67.2 58.2016 68.84 55.9616 68.84ZM69.5607 59.4C67.7407 59.4 66.3207 60.14 65.5607 61.42V59.48H64.2007V70H65.6207V64.48C65.6207 62.08 67.0407 60.68 69.3007 60.68C71.3007 60.68 72.4607 61.82 72.4607 64.04V70H73.8807V63.9C73.8807 60.88 72.1207 59.4 69.5607 59.4ZM83.0959 59.4C81.2759 59.4 79.8559 60.14 79.0959 61.42V59.48H77.7359V70H79.1559V64.48C79.1559 62.08 80.5759 60.68 82.8359 60.68C84.8359 60.68 85.9959 61.82 85.9959 64.04V70H87.4159V63.9C87.4159 60.88 85.6559 59.4 83.0959 59.4ZM100.49 64.74C100.49 61.58 98.3501 59.4 95.3901 59.4C92.4301 59.4 90.2501 61.62 90.2501 64.74C90.2501 67.86 92.4901 70.1 95.7701 70.1C97.4301 70.1 98.8901 69.5 99.8301 68.38L99.0301 67.46C98.2301 68.38 97.0901 68.84 95.8101 68.84C93.5101 68.84 91.8301 67.38 91.6701 65.18H100.47C100.47 65.02 100.49 64.86 100.49 64.74ZM95.3901 60.62C97.4501 60.62 98.9501 62.06 99.1301 64.12H91.6701C91.8501 62.06 93.3501 60.62 95.3901 60.62ZM107.74 70.1C109.52 70.1 111.02 69.38 111.86 68.02L110.8 67.3C110.08 68.36 108.96 68.84 107.74 68.84C105.44 68.84 103.76 67.22 103.76 64.74C103.76 62.28 105.44 60.64 107.74 60.64C108.96 60.64 110.08 61.14 110.8 62.2L111.86 61.48C111.02 60.1 109.52 59.4 107.74 59.4C104.6 59.4 102.32 61.6 102.32 64.74C102.32 67.88 104.6 70.1 107.74 70.1ZM119.807 68.34C119.407 68.7 118.827 68.88 118.247 68.88C117.067 68.88 116.427 68.2 116.427 66.96V60.68H119.627V59.48H116.427V57.18H115.007V59.48H113.127V60.68H115.007V67.04C115.007 68.98 116.107 70.1 118.087 70.1C118.907 70.1 119.747 69.86 120.307 69.36L119.807 68.34ZM128.266 70.1C128.846 70.1 129.346 69.62 129.346 69C129.346 68.38 128.846 67.92 128.266 67.92C127.686 67.92 127.206 68.38 127.206 69C127.206 69.62 127.686 70.1 128.266 70.1ZM155.699 56L151.599 68.1L147.479 56H146.099L141.919 68.04L137.879 56H136.359L141.079 70H142.619L146.739 58.06L150.839 70H152.399L157.119 56H155.699ZM167.912 64.74C167.912 61.58 165.772 59.4 162.812 59.4C159.852 59.4 157.672 61.62 157.672 64.74C157.672 67.86 159.912 70.1 163.192 70.1C164.852 70.1 166.312 69.5 167.252 68.38L166.452 67.46C165.652 68.38 164.512 68.84 163.232 68.84C160.932 68.84 159.252 67.38 159.092 65.18H167.892C167.892 65.02 167.912 64.86 167.912 64.74ZM162.812 60.62C164.872 60.62 166.372 62.06 166.552 64.12H159.092C159.272 62.06 160.772 60.62 162.812 60.62ZM178.857 70.1C181.597 70.1 183.197 68.92 183.197 67.1C183.197 63.06 176.377 65.2 176.377 62.36C176.377 61.36 177.217 60.62 179.117 60.62C180.197 60.62 181.297 60.88 182.217 61.52L182.837 60.38C181.957 59.78 180.477 59.4 179.117 59.4C176.437 59.4 174.957 60.68 174.957 62.4C174.957 66.56 181.777 64.4 181.777 67.14C181.777 68.18 180.957 68.86 178.957 68.86C177.477 68.86 176.057 68.34 175.217 67.68L174.577 68.8C175.437 69.54 177.117 70.1 178.857 70.1ZM195.002 64.74C195.002 61.58 192.862 59.4 189.902 59.4C186.942 59.4 184.762 61.62 184.762 64.74C184.762 67.86 187.002 70.1 190.282 70.1C191.942 70.1 193.402 69.5 194.342 68.38L193.542 67.46C192.742 68.38 191.602 68.84 190.322 68.84C188.022 68.84 186.342 67.38 186.182 65.18H194.982C194.982 65.02 195.002 64.86 195.002 64.74ZM189.902 60.62C191.962 60.62 193.462 62.06 193.642 64.12H186.182C186.362 62.06 187.862 60.62 189.902 60.62ZM199.252 61.54V59.48H197.892V70H199.312V64.64C199.312 62.16 200.652 60.76 202.852 60.76C202.952 60.76 203.072 60.78 203.192 60.78V59.4C201.252 59.4 199.912 60.14 199.252 61.54ZM213.652 59.48L209.672 68.44L205.732 59.48H204.252L208.912 70H210.372L215.052 59.48H213.652ZM225.939 64.74C225.939 61.58 223.799 59.4 220.839 59.4C217.879 59.4 215.699 61.62 215.699 64.74C215.699 67.86 217.939 70.1 221.219 70.1C222.879 70.1 224.339 69.5 225.279 68.38L224.479 67.46C223.679 68.38 222.539 68.84 221.259 68.84C218.959 68.84 217.279 67.38 217.119 65.18H225.919C225.919 65.02 225.939 64.86 225.939 64.74ZM220.839 60.62C222.899 60.62 224.399 62.06 224.579 64.12H217.119C217.299 62.06 218.799 60.62 220.839 60.62Z" fill="#5B9DC2"/>
</svg>
