<svg width="247" height="68" viewBox="0 0 247 68" fill="none" xmlns="http://www.w3.org/2000/svg">
<path d="M45.6946 27.6823C45.5701 27.3121 45.3409 26.9867 45.0354 26.7464C44.7299 26.5062 44.3614 26.3615 43.9754 26.3303L32.6838 25.4243L27.7976 14.5023C27.642 14.1505 27.3889 13.8517 27.0689 13.642C26.7488 13.4322 26.3755 13.3205 25.9939 13.3203C25.6124 13.3201 25.2389 13.4314 24.9187 13.6408C24.5984 13.8501 24.3449 14.1486 24.189 14.5003L19.3028 25.4243L8.01122 26.3303C7.63184 26.3607 7.26915 26.5007 6.96655 26.7338C6.66394 26.9668 6.43423 27.283 6.3049 27.6444C6.17556 28.0058 6.15208 28.3972 6.23726 28.7717C6.32244 29.1463 6.51268 29.4881 6.78521 29.7563L15.1296 37.9704L12.1785 50.8745C12.0888 51.2651 12.1176 51.6738 12.2609 52.0478C12.4042 52.4217 12.6555 52.7435 12.9822 52.9713C13.3089 53.1992 13.6958 53.3227 14.0929 53.3258C14.4899 53.3288 14.8787 53.2113 15.2088 52.9885L25.9933 45.7284L36.7778 52.9885C37.1152 53.2147 37.513 53.3311 37.9179 53.3221C38.3228 53.3132 38.7152 53.1792 39.0424 52.9383C39.3697 52.6974 39.616 52.3611 39.7483 51.9746C39.8806 51.5881 39.8925 51.17 39.7824 50.7765L36.1598 37.9764L45.1439 29.8123C45.7322 29.2763 45.9481 28.4403 45.6946 27.6823Z" fill="#F9A825"/>
<path d="M94.2195 27.6823C94.095 27.3121 93.8658 26.9867 93.5603 26.7464C93.2548 26.5062 92.8863 26.3615 92.5003 26.3303L81.2087 25.4243L76.3225 14.5023C76.1669 14.1505 75.9138 13.8517 75.5938 13.642C75.2737 13.4322 74.9004 13.3205 74.5188 13.3203C74.1373 13.3201 73.7639 13.4314 73.4436 13.6408C73.1233 13.8501 72.8698 14.1486 72.7139 14.5003L67.8277 25.4243L56.5361 26.3303C56.1567 26.3607 55.7941 26.5007 55.4915 26.7338C55.1888 26.9668 54.9591 27.283 54.8298 27.6444C54.7005 28.0058 54.677 28.3972 54.7622 28.7717C54.8473 29.1463 55.0376 29.4881 55.3101 29.7563L63.6545 37.9704L60.7034 50.8745C60.6137 51.2651 60.6425 51.6738 60.7858 52.0478C60.9291 52.4217 61.1804 52.7435 61.5071 52.9713C61.8338 53.1992 62.2207 53.3227 62.6178 53.3258C63.0148 53.3288 63.4036 53.2113 63.7337 52.9885L74.5182 45.7284L85.3027 52.9885C85.6401 53.2147 86.0379 53.3311 86.4428 53.3221C86.8477 53.3132 87.2401 53.1792 87.5673 52.9383C87.8946 52.6974 88.1409 52.3611 88.2732 51.9746C88.4055 51.5881 88.4174 51.17 88.3073 50.7765L84.6847 37.9764L93.6688 29.8123C94.2571 29.2763 94.473 28.4403 94.2195 27.6823Z" fill="#F9A825"/>
<path d="M142.745 27.6823C142.621 27.3121 142.392 26.9867 142.086 26.7464C141.781 26.5062 141.412 26.3615 141.026 26.3303L129.735 25.4243L124.848 14.5023C124.693 14.1505 124.44 13.8517 124.12 13.642C123.8 13.4322 123.426 13.3205 123.045 13.3203C122.663 13.3201 122.29 13.4314 121.969 13.6408C121.649 13.8501 121.396 14.1486 121.24 14.5003L116.354 25.4243L105.062 26.3303C104.683 26.3607 104.32 26.5007 104.017 26.7338C103.715 26.9668 103.485 27.283 103.356 27.6444C103.226 28.0058 103.203 28.3972 103.288 28.7717C103.373 29.1463 103.563 29.4881 103.836 29.7563L112.18 37.9704L109.229 50.8745C109.14 51.2651 109.168 51.6738 109.312 52.0478C109.455 52.4217 109.706 52.7435 110.033 52.9713C110.36 53.1992 110.747 53.3227 111.144 53.3258C111.541 53.3288 111.93 53.2113 112.26 52.9885L123.044 45.7284L133.829 52.9885C134.166 53.2147 134.564 53.3311 134.969 53.3221C135.374 53.3132 135.766 53.1792 136.093 52.9383C136.42 52.6974 136.667 52.3611 136.799 51.9746C136.931 51.5881 136.943 51.17 136.833 50.7765L133.211 37.9764L142.195 29.8123C142.783 29.2763 142.999 28.4403 142.745 27.6823Z" fill="#F9A825"/>
<path d="M191.269 27.6823C191.145 27.3121 190.916 26.9867 190.61 26.7464C190.305 26.5062 189.936 26.3615 189.55 26.3303L178.259 25.4243L173.372 14.5023C173.217 14.1505 172.964 13.8517 172.644 13.642C172.324 13.4322 171.95 13.3205 171.569 13.3203C171.187 13.3201 170.814 13.4314 170.493 13.6408C170.173 13.8501 169.92 14.1486 169.764 14.5003L164.877 25.4243L153.586 26.3303C153.207 26.3607 152.844 26.5007 152.541 26.7338C152.239 26.9668 152.009 27.283 151.88 27.6444C151.75 28.0058 151.727 28.3972 151.812 28.7717C151.897 29.1463 152.087 29.4881 152.36 29.7563L160.704 37.9704L157.753 50.8745C157.664 51.2651 157.692 51.6738 157.836 52.0478C157.979 52.4217 158.23 52.7435 158.557 52.9713C158.884 53.1992 159.271 53.3227 159.668 53.3258C160.065 53.3288 160.453 53.2113 160.784 52.9885L171.568 45.7284L182.353 52.9885C182.69 53.2147 183.088 53.3311 183.493 53.3221C183.897 53.3132 184.29 53.1792 184.617 52.9383C184.944 52.6974 185.191 52.3611 185.323 51.9746C185.455 51.5881 185.467 51.17 185.357 50.7765L181.735 37.9764L190.719 29.8123C191.307 29.2763 191.523 28.4403 191.269 27.6823Z" fill="#F9A825"/>
<path d="M207.272 50.8735C207.204 51.1668 207.203 51.4718 207.269 51.7657C207.334 52.0596 207.465 52.3346 207.65 52.5703C207.836 52.806 208.072 52.9962 208.341 53.1266C208.61 53.257 208.905 53.3242 209.203 53.3232C209.595 53.3233 209.977 53.2064 210.303 52.9873L221.087 45.728L231.872 52.9873C232.209 53.2134 232.607 53.3299 233.012 53.3209C233.417 53.3119 233.809 53.178 234.136 52.9371C234.463 52.6962 234.71 52.36 234.842 51.9735C234.974 51.5871 234.986 51.169 234.876 50.7755L231.254 37.9767L240.238 29.8136C240.525 29.552 240.731 29.2109 240.829 28.8327C240.927 28.4544 240.912 28.0555 240.788 27.6852C240.664 27.315 240.435 26.9897 240.129 26.7495C239.824 26.5093 239.455 26.3648 239.069 26.3339L227.778 25.426L222.891 14.5051C222.736 14.1533 222.483 13.8546 222.163 13.6449C221.843 13.4352 221.469 13.3235 221.088 13.3232C220.706 13.323 220.333 13.4343 220.012 13.6437C219.692 13.853 219.439 14.1515 219.283 14.5031L214.397 25.426L203.105 26.3319C202.726 26.3622 202.363 26.5023 202.06 26.7353C201.758 26.9683 201.528 27.2844 201.399 27.6458C201.269 28.0072 201.246 28.3986 201.331 28.7731C201.416 29.1476 201.606 29.4894 201.879 29.7576L210.225 37.9707L207.272 50.8735ZM221.087 20.1845L225.131 29.2256L226.296 29.3196H226.298L234.165 29.9495L227.686 35.837L227.685 35.841L226.767 36.6729L227.106 37.8668V37.8728L229.588 46.6419L221.087 40.9205V20.1845Z" fill="#F9A825"/>
</svg>
